# xmcd
#
# Track frame offsets:
# 150
# 23963
# 37025
# 61172
# 92987
# 126928
# 171449
# 195360
# 224979
# 263915
# 288544
#
# Disc length: 4439 seconds
#
#
# Revision: 4
# Processed by: cddbd v1.5.2PL0 Copyright (c) Steve Scherf et al.
# Submitted via: FreeRIP 2.945 
#
DISCID=af11550b
DTITLE=Ouvir e Crer - Único Desejo
DYEAR=2004
DGENRE=Gospel and Religious
TTITLE0=Até te encontrar
TTITLE1=Eternamente apaixonado
TTITLE2=Leva-me/O Espírito e a Noiva/E Ele vem
TTITLE3=Ele vem
TTITLE4=Ministração
TTITLE5=Único desejo
TTITLE6=Vestes de Louvor
TTITLE7=Sou Teu Jardim
TTITLE8=Santo/Não há Ninguém como Tu
TTITLE9=Lugar Santo
TTITLE10=Ao que se Assenta/Pois Tu És Santo
EXTD=
EXTT0=
EXTT1=
EXTT2=
EXTT3=
EXTT4=
EXTT5=
EXTT6=
EXTT7=
EXTT8=
EXTT9=
EXTT10=
PLAYORDER=
